<?xml version="1.0" encoding="iso-8859-1"?>
<!-- Generator: Adobe Illustrator 19.0.0, SVG Export Plug-In . SVG Version: 6.00 Build 0)  -->
<svg version="1.1" id="Capa_1" xmlns="http://www.w3.org/2000/svg" xmlns:xlink="http://www.w3.org/1999/xlink" x="0px" y="0px"
	 viewBox="0 0 480 480" style="enable-background:new 0 0 480 480;" xml:space="preserve">
<g>
	
		<linearGradient id="SVGID_1_" gradientUnits="userSpaceOnUse" x1="-50.875" y1="619.154" x2="-50.875" y2="554.045" gradientTransform="matrix(8 0 0 -8 623 4941)">
		<stop  offset="0" style="stop-color:#57B6AD"/>
		<stop  offset="1" style="stop-color:#0bb1d3"/>
	</linearGradient>
	<path style="fill:url(#SVGID_1_);" d="M88,64h256v64h16V32c0-14.4-18.464-32-40-32H112C89.92,0.026,72.026,17.92,72,40v136h16V64z
		 M112,16h208c13.864,0,24,11.2,24,16v16H88v-8C88,26.745,98.745,16,112,16z"/>
	
		<linearGradient id="SVGID_2_" gradientUnits="userSpaceOnUse" x1="-50.875" y1="619.154" x2="-50.875" y2="554.045" gradientTransform="matrix(8 0 0 -8 623 4941)">
		<stop  offset="0" style="stop-color:#57B6AD"/>
		<stop  offset="1" style="stop-color:#0bb1d3"/>
	</linearGradient>
	<path style="fill:url(#SVGID_2_);" d="M344,416H240v16h104v8c0,13.255-10.745,24-24,24H112c-13.255,0-24-10.745-24-24v-8h104v-16
		H88V304H72v136c0.026,22.08,17.92,39.974,40,40h208c22.08-0.026,39.974-17.92,40-40V304h-16V416z"/>
	
		<linearGradient id="SVGID_3_" gradientUnits="userSpaceOnUse" x1="-50.875" y1="619.154" x2="-50.875" y2="554.045" gradientTransform="matrix(8 0 0 -8 623 4941)">
		<stop  offset="0" style="stop-color:#57B6AD"/>
		<stop  offset="1" style="stop-color:#0bb1d3"/>
	</linearGradient>
	<path style="fill:url(#SVGID_3_);" d="M208,416h16v16h-16V416z"/>
	
		<linearGradient id="SVGID_4_" gradientUnits="userSpaceOnUse" x1="-50.875" y1="619.154" x2="-50.875" y2="554.045" gradientTransform="matrix(8 0 0 -8 623 4941)">
		<stop  offset="0" style="stop-color:#57B6AD"/>
		<stop  offset="1" style="stop-color:#0bb1d3"/>
	</linearGradient>
	<path style="fill:url(#SVGID_4_);" d="M208,24h16v16h-16V24z"/>
</g>
<g>
	
		<linearGradient id="SVGID_5_" gradientUnits="userSpaceOnUse" x1="-34.875" y1="619.154" x2="-34.875" y2="554.045" gradientTransform="matrix(8 0 0 -8 623 4941)">
		<stop  offset="0" style="stop-color:#57B6AD"/>
		<stop  offset="1" style="stop-color:#0bb1d3"/>
	</linearGradient>
	<path style="fill:url(#SVGID_5_);" d="M448,136H240c-4.418,0-8,3.582-8,8v144c0,4.418,3.582,8,8,8h24v40
		c0.001,4.418,3.583,7.999,8.002,7.998c2.121,0,4.154-0.843,5.654-2.342L323.312,296H448c4.418,0,8-3.582,8-8V144
		C456,139.582,452.418,136,448,136z M440,280H320c-2.122,0-4.156,0.844-5.656,2.344L280,316.688V288c0-4.418-3.582-8-8-8h-24V152
		h192V280z"/>
	
		<linearGradient id="SVGID_6_" gradientUnits="userSpaceOnUse" x1="-67.875" y1="619.154" x2="-67.875" y2="554.045" gradientTransform="matrix(8 0 0 -8 623 4941)">
		<stop  offset="0" style="stop-color:#57B6AD"/>
		<stop  offset="1" style="stop-color:#0bb1d3"/>
	</linearGradient>
	<path style="fill:url(#SVGID_6_);" d="M136,240c0-30.928-25.072-56-56-56s-56,25.072-56,56s25.072,56,56,56
		C110.913,295.965,135.965,270.913,136,240z M40,240c0-22.091,17.909-40,40-40s40,17.909,40,40s-17.909,40-40,40
		C57.92,279.974,40.026,262.08,40,240z"/>
	
		<linearGradient id="SVGID_7_" gradientUnits="userSpaceOnUse" x1="-69.1525" y1="619.154" x2="-69.1525" y2="554.045" gradientTransform="matrix(8 0 0 -8 623 4941)">
		<stop  offset="0" style="stop-color:#57B6AD"/>
		<stop  offset="1" style="stop-color:#0bb1d3"/>
	</linearGradient>
	<path style="fill:url(#SVGID_7_);" d="M88,272v-56c0.001-4.418-3.581-8.001-7.999-8.001c-1.581,0-3.126,0.468-4.441,1.345l-24,16
		l8.88,13.312L72,230.952V272H88z"/>
	
		<linearGradient id="SVGID_8_" gradientUnits="userSpaceOnUse" x1="-34.875" y1="619.154" x2="-34.875" y2="554.045" gradientTransform="matrix(8 0 0 -8 623 4941)">
		<stop  offset="0" style="stop-color:#57B6AD"/>
		<stop  offset="1" style="stop-color:#0bb1d3"/>
	</linearGradient>
	<path style="fill:url(#SVGID_8_);" d="M280,192h128c4.418,0,8-3.582,8-8s-3.582-8-8-8H280c-4.418,0-8,3.582-8,8
		S275.582,192,280,192z"/>
	
		<linearGradient id="SVGID_9_" gradientUnits="userSpaceOnUse" x1="-34.875" y1="619.154" x2="-34.875" y2="554.045" gradientTransform="matrix(8 0 0 -8 623 4941)">
		<stop  offset="0" style="stop-color:#57B6AD"/>
		<stop  offset="1" style="stop-color:#0bb1d3"/>
	</linearGradient>
	<path style="fill:url(#SVGID_9_);" d="M280,224h128c4.418,0,8-3.582,8-8s-3.582-8-8-8H280c-4.418,0-8,3.582-8,8
		S275.582,224,280,224z"/>
	
		<linearGradient id="SVGID_10_" gradientUnits="userSpaceOnUse" x1="-34.875" y1="619.154" x2="-34.875" y2="554.045" gradientTransform="matrix(8 0 0 -8 623 4941)">
		<stop  offset="0" style="stop-color:#57B6AD"/>
		<stop  offset="1" style="stop-color:#0bb1d3"/>
	</linearGradient>
	<path style="fill:url(#SVGID_10_);" d="M280,256h128c4.418,0,8-3.582,8-8s-3.582-8-8-8H280c-4.418,0-8,3.582-8,8
		S275.582,256,280,256z"/>
</g>
<g>
</g>
<g>
</g>
<g>
</g>
<g>
</g>
<g>
</g>
<g>
</g>
<g>
</g>
<g>
</g>
<g>
</g>
<g>
</g>
<g>
</g>
<g>
</g>
<g>
</g>
<g>
</g>
<g>
</g>
</svg>
