<?xml version="1.0"?>
<svg xmlns="http://www.w3.org/2000/svg" xmlns:xlink="http://www.w3.org/1999/xlink" id="Layer_1" data-name="Layer 1" viewBox="0 0 512 512" width="512" height="512"><defs><linearGradient id="linear-gradient" x1="190.7" y1="478" x2="190.7" y2="45.704" gradientUnits="userSpaceOnUse"><stop offset="0.322" stop-color="#0bb1d3"/><stop offset="0.466" stop-color="#0bb1d3"/><stop offset="0.752" stop-color="#57B6AD"/><stop offset="0.898" stop-color="#57B6AD"/></linearGradient><linearGradient id="linear-gradient-2" x1="283.029" y1="478" x2="283.029" y2="45.704" xlink:href="#linear-gradient"/><linearGradient id="linear-gradient-6" x1="256" y1="478" x2="256" y2="45.704" xlink:href="#linear-gradient"/><linearGradient id="linear-gradient-7" x1="366" y1="478" x2="366" y2="45.704" xlink:href="#linear-gradient"/></defs><title>Database Info</title><path d="M142.17,190.827A398.985,398.985,0,0,0,196,194.371a408.235,408.235,0,0,0,43.051-2.235,6,6,0,0,0-1.27-11.932A396.278,396.278,0,0,1,196,182.371a386.883,386.883,0,0,1-52.2-3.433,6,6,0,0,0-1.626,11.889Z" style="fill:url(#linear-gradient)"/><path d="M283.029,194.371a17.922,17.922,0,1,0-17.922-17.922A17.943,17.943,0,0,0,283.029,194.371Zm0-23.844a5.922,5.922,0,1,1-5.922,5.922A5.929,5.929,0,0,1,283.029,170.527Z" style="fill:url(#linear-gradient-2)"/><path d="M237.781,281.539A396.278,396.278,0,0,1,196,283.706a386.717,386.717,0,0,1-52.2-3.434,6,6,0,0,0-1.626,11.89A398.985,398.985,0,0,0,196,295.706a408.235,408.235,0,0,0,43.051-2.235,6,6,0,0,0-1.27-11.932Z" style="fill:url(#linear-gradient)"/><path d="M300.951,277.784a17.922,17.922,0,1,0-17.922,17.922A17.942,17.942,0,0,0,300.951,277.784Zm-17.922,5.922a5.922,5.922,0,1,1,5.922-5.922A5.929,5.929,0,0,1,283.029,283.706Z" style="fill:url(#linear-gradient-2)"/><path d="M237.781,382.873A395.965,395.965,0,0,1,196,385.041a386.717,386.717,0,0,1-52.2-3.434,6,6,0,0,0-1.626,11.89A398.985,398.985,0,0,0,196,397.041a408.212,408.212,0,0,0,43.052-2.235,6,6,0,0,0-1.271-11.933Z" style="fill:url(#linear-gradient)"/><path d="M366,277.464a107.247,107.247,0,0,0-14,.924V82.821c0-17.215-17.008-32.85-47.892-44.027C275.139,28.31,236.745,22.536,196,22.536S116.861,28.31,87.892,38.794C57.008,49.971,40,65.606,40,82.821V392.107c0,17.223,17.007,32.861,47.887,44.035,28.962,10.48,67.357,16.251,108.113,16.251,29.5,0,58.01-3.053,82.687-8.825A106,106,0,1,0,366,277.464Zm-90.473,50.948c-23.691,5.5-51.119,8.409-79.527,8.409-39.4,0-76.344-5.517-104.03-15.534C66.568,312.1,52,300.158,52,288.536V209.618c8.116,7.6,20.209,14.422,35.887,20.1,28.962,10.48,67.357,16.251,108.113,16.251s79.151-5.771,108.113-16.251c15.678-5.673,27.771-12.5,35.887-20.095v71.061A106.065,106.065,0,0,0,275.527,328.412ZM52,106.752c8.117,7.6,20.212,14.422,35.892,20.1,28.969,10.484,67.363,16.258,108.108,16.258s79.139-5.774,108.108-16.258c15.68-5.675,27.775-12.5,35.892-20.1v78.927c0,11.622-14.568,23.559-39.97,32.751C272.344,228.447,235.4,233.964,196,233.964s-76.344-5.517-104.03-15.534C66.568,209.238,52,197.3,52,185.679ZM91.976,50.078C119.669,40.055,156.612,34.536,196,34.536s76.331,5.519,104.024,15.542C325.429,59.272,340,71.207,340,82.821s-14.571,23.55-39.976,32.744C272.331,125.587,235.388,131.107,196,131.107s-76.331-5.52-104.024-15.542C66.571,106.371,52,94.437,52,82.821S66.571,59.272,91.976,50.078Zm-.006,374.78C66.568,415.667,52,403.729,52,392.107V312.475c8.116,7.6,20.209,14.422,35.887,20.095,28.962,10.48,67.357,16.251,108.113,16.251a381.862,381.862,0,0,0,72.439-6.627,105.64,105.64,0,0,0,3.706,90.552c-22.9,5.006-49.066,7.647-76.145,7.647C156.6,440.393,119.656,434.876,91.97,424.858ZM366,477.464A94.011,94.011,0,0,1,347.022,291.38,94.009,94.009,0,1,1,366,477.464Z" style="fill:url(#linear-gradient-6)"/><path d="M366,338.158a6,6,0,0,0-6,6v46.613a6,6,0,0,0,12,0V344.158A6,6,0,0,0,366,338.158Z" style="fill:url(#linear-gradient-7)"/><path d="M366,410.158a6,6,0,0,0-6,6v6.613a6,6,0,0,0,12,0v-6.613A6,6,0,0,0,366,410.158Z" style="fill:url(#linear-gradient-7)"/></svg>
