<?xml version="1.0" encoding="iso-8859-1"?>
<!-- Generator: Adobe Illustrator 22.1.0, SVG Export Plug-In . SVG Version: 6.00 Build 0)  -->
<svg xmlns="http://www.w3.org/2000/svg" xmlns:xlink="http://www.w3.org/1999/xlink" version="1.1" id="Layer_1_1_" x="0px" y="0px" viewBox="0 0 64 64" style="enable-background:new 0 0 64 64;" xml:space="preserve" width="512" height="512">
<linearGradient id="SVGID_1_" gradientUnits="userSpaceOnUse" x1="32" y1="63" x2="32" y2="1">
	<stop offset="0" style="stop-color:#0bb1d3"/>
	<stop offset="1" style="stop-color:#57B6AD"/>
</linearGradient>
<path style="fill:url(#SVGID_1_);" d="M55,25v2h6v14h-6v-6.184c1.161-0.414,2-1.514,2-2.816c0-1.654-1.346-3-3-3s-3,1.346-3,3  c0,1.302,0.839,2.402,2,2.816V41h-4V27h4V1H1v62h52V43h10V25H55z M54,31c0.552,0,1,0.449,1,1s-0.448,1-1,1s-1-0.449-1-1  S53.448,31,54,31z M51,61H3V3h48v22h-4v2h-1.586l-0.535-0.536C43.935,25.52,42.679,25,41.343,25h-2.28  c0.131-0.963,0.489-1.948,1.087-2.94c0.759-1.259,1.018-2.703,0.748-4.175c-0.432-2.359-2.29-4.269-4.623-4.753  c-1.808-0.378-3.652,0.066-5.06,1.212C29.808,15.49,29,17.187,29,19c0,1.119,0.314,2.21,0.91,3.156  c0.562,0.895,0.906,1.865,1.031,2.844H28c-1.654,0-3,1.346-3,3c0,0.771,0.301,1.468,0.78,2c-0.48,0.532-0.78,1.229-0.78,2  s0.301,1.468,0.78,2c-0.48,0.532-0.78,1.229-0.78,2s0.301,1.468,0.78,2c-0.48,0.532-0.78,1.229-0.78,2c0,1.654,1.346,3,3,3h3v2.08  c-3.059,0.441-5.479,2.861-5.92,5.92H24c-1.654,0-3,1.346-3,3v3h28v-3c0-1.654-1.346-3-3-3h-1.08  c-0.441-3.059-2.861-5.479-5.92-5.92V43h2.343c1.336,0,2.592-0.52,3.536-1.464L45.414,41H47v2h4V61z M47,39h-2.414l-1.121,1.122  C42.898,40.688,42.145,41,41.343,41H39V29h-6v3c0,0.551-0.448,1-1,1s-1-0.449-1-1v-4c0-0.551,0.448-1,1-1h9.343  c0.802,0,1.556,0.312,2.122,0.878L44.586,29H47V39z M46,53c0.552,0,1,0.449,1,1v1H23v-1c0-0.551,0.448-1,1-1H46z M27.101,51  c0.465-2.279,2.484-4,4.899-4h6c2.414,0,4.434,1.721,4.899,4H27.101z M27,28c0-0.551,0.448-1,1-1h1.184  C29.072,27.314,29,27.648,29,28v1h-1C27.448,29,27,28.551,27,28z M38.437,21.028c-0.794,1.317-1.242,2.65-1.376,3.972h-4.119  c-0.13-1.352-0.573-2.69-1.338-3.908C31.209,20.465,31,19.741,31,19c0-1.209,0.538-2.34,1.478-3.104  c0.953-0.776,2.16-1.059,3.391-0.806c1.545,0.321,2.775,1.588,3.062,3.155C39.11,19.23,38.94,20.192,38.437,21.028z M37,45h-4  v-2.184c1.161-0.414,2-1.514,2-2.816c0-0.771-0.301-1.468-0.78-2c0.48-0.532,0.78-1.229,0.78-2s-0.301-1.468-0.78-2  c0.48-0.532,0.78-1.229,0.78-2v-1h2V45z M33,36c0,0.551-0.448,1-1,1h-4c-0.552,0-1-0.449-1-1s0.448-1,1-1h3h1  C32.552,35,33,35.449,33,36z M27,32c0-0.551,0.448-1,1-1h1v1c0,0.352,0.072,0.686,0.184,1H28C27.448,33,27,32.551,27,32z M28,39h4  c0.552,0,1,0.449,1,1s-0.448,1-1,1h-4c-0.552,0-1-0.449-1-1S27.448,39,28,39z M27,7H5V5h22V7z M9,9h18v2H9V9z M7,11H5V9h2V11z   M27,15H5v-2h22V15z M25,17h2v2h-2V17z M23,19H5v-2h18V19z M15.75,30H5v12h12V31.667l3.8-5.067l-1.6-1.2L15.75,30z M15,40H7v-8h7.25  l-3.358,4.478l-1.185-1.185l-1.414,1.414l2.815,2.815L15,34.333V40z M19.2,42.4L15.75,47H5v12h12V48.667l3.8-5.067L19.2,42.4z   M15,57H7v-8h7.25l-3.358,4.478l-1.185-1.185l-1.414,1.414l2.815,2.815L15,51.333V57z"/>
</svg>
